{
	"asset":{
		"generator":"Khronos glTF Blender I/O v4.4.56",
		"version":"2.0"
	},
	"scene":0,
	"scenes":[
		{
			"name":"Scene",
			"nodes":[
				0
			]
		}
	],
	"nodes":[
		{
			"mesh":0,
			"name":"bfm",
			"rotation":[
				-0.9634478688240051,
				0.03224217891693115,
				0.22861887514591217,
				0.13587529957294464
			],
			"translation":[
				0,
				0,
				-1.2139123678207397
			]
		}
	],
	"materials":[
		{
			"doubleSided":true,
			"name":"Glass Shader.001"
		}
	],
	"meshes":[
		{
			"name":"path1",
			"primitives":[
				{
					"attributes":{
						"POSITION":0,
						"NORMAL":1,
						"TEXCOORD_0":2
					},
					"indices":3,
					"material":0
				}
			]
		}
	],
	"accessors":[
		{
			"bufferView":0,
			"componentType":5126,
			"count":118302,
			"max":[
				1.1303874254226685,
				0.11249999701976776,
				1.374932885169983
			],
			"min":[
				-1.0184829235076904,
				-0.11249999701976776,
				-1.2031002044677734
			],
			"type":"VEC3"
		},
		{
			"bufferView":1,
			"componentType":5126,
			"count":118302,
			"type":"VEC3"
		},
		{
			"bufferView":2,
			"componentType":5126,
			"count":118302,
			"type":"VEC2"
		},
		{
			"bufferView":3,
			"componentType":5125,
			"count":599268,
			"type":"SCALAR"
		}
	],
	"bufferViews":[
		{
			"buffer":0,
			"byteLength":1419624,
			"byteOffset":0,
			"target":34962
		},
		{
			"buffer":0,
			"byteLength":1419624,
			"byteOffset":1419624,
			"target":34962
		},
		{
			"buffer":0,
			"byteLength":946416,
			"byteOffset":2839248,
			"target":34962
		},
		{
			"buffer":0,
			"byteLength":2397072,
			"byteOffset":3785664,
			"target":34963
		}
	],
	"buffers":[
		{
			"byteLength":6182736,
			"uri":"bfm2.bin"
		}
	]
}
